<svg width="222" height="222" viewBox="0 0 222 222" fill="none" xmlns="http://www.w3.org/2000/svg">
<path fill-rule="evenodd" clip-rule="evenodd" d="M111 222C172.304 222 222 172.304 222 111C222 49.6964 172.304 0 111 0C49.6964 0 0 49.6964 0 111C0 172.304 49.6964 222 111 222ZM110.5 211C166.005 211 211 166.005 211 110.5C211 54.9954 166.005 10 110.5 10C54.9954 10 10 54.9954 10 110.5C10 166.005 54.9954 211 110.5 211Z" fill="#355C7D"/>
<rect x="104.143" y="51" width="12.8571" height="120" rx="6.42857" fill="#355C7D"/>
<rect x="51" y="117" width="12.8571" height="120" rx="6.42857" transform="rotate(-90 51 117)" fill="#355C7D"/>
</svg>
